<svg width="156" height="40" viewBox="0 0 156 40" fill="none" xmlns="http://www.w3.org/2000/svg">
<path d="M0 0H156V16C156 29.2548 145.255 40 132 40H0V0Z" fill="url(#paint0_linear_2160_945)"/>
<path d="M36.3253 15.2727V24H34.7443V16.8111H34.6932L32.652 18.1151V16.6662L34.821 15.2727H36.3253ZM43.523 15.2727H45.4576L48.0486 21.5966H48.1508L50.7417 15.2727H52.6764V24H51.1593V18.0043H51.0784L48.6664 23.9744H47.5329L45.121 17.9915H45.04V24H43.523V15.2727ZM55.358 24V15.2727H61.0341V16.598H56.9389V18.9673H60.7401V20.2926H56.9389V22.6747H61.0682V24H55.358ZM59.0654 14.4886L58.2003 13.3977L57.3353 14.4886H55.9844V14.429L57.5995 12.5881H58.8054L60.4162 14.429V14.4886H59.0654ZM68.3499 17.6719C68.3102 17.2997 68.1426 17.0099 67.8471 16.8026C67.5545 16.5952 67.1738 16.4915 66.7051 16.4915C66.3755 16.4915 66.0928 16.5412 65.857 16.6406C65.6213 16.7401 65.4409 16.875 65.3159 17.0455C65.1909 17.2159 65.1269 17.4105 65.1241 17.6293C65.1241 17.8111 65.1653 17.9687 65.2477 18.1023C65.3329 18.2358 65.448 18.3494 65.5928 18.4432C65.7377 18.5341 65.8982 18.6108 66.0744 18.6733C66.2505 18.7358 66.4281 18.7884 66.607 18.831L67.4252 19.0355C67.7548 19.1122 68.0715 19.2159 68.3755 19.3466C68.6823 19.4773 68.9565 19.642 69.198 19.8409C69.4423 20.0398 69.6355 20.2798 69.7775 20.5611C69.9195 20.8423 69.9906 21.1719 69.9906 21.5497C69.9906 22.0611 69.8599 22.5114 69.5985 22.9006C69.3372 23.2869 68.9593 23.5895 68.465 23.8082C67.9735 24.0241 67.3784 24.1321 66.6795 24.1321C66.0005 24.1321 65.411 24.027 64.911 23.8168C64.4139 23.6065 64.0247 23.2997 63.7434 22.8963C63.465 22.4929 63.3144 22.0014 63.2917 21.4219H64.8471C64.8698 21.7259 64.9636 21.9787 65.1284 22.1804C65.2931 22.3821 65.5076 22.5327 65.7718 22.6321C66.0389 22.7315 66.3372 22.7812 66.6667 22.7812C67.0105 22.7812 67.3116 22.7301 67.5701 22.6278C67.8315 22.5227 68.036 22.3778 68.1838 22.1932C68.3315 22.0057 68.4068 21.7869 68.4096 21.5369C68.4068 21.3097 68.34 21.1222 68.2093 20.9744C68.0786 20.8239 67.8954 20.6989 67.6596 20.5994C67.4266 20.4972 67.1539 20.4062 66.8414 20.3267L65.8485 20.071C65.1298 19.8864 64.5616 19.6065 64.144 19.2315C63.7292 18.8537 63.5218 18.3523 63.5218 17.7273C63.5218 17.2131 63.661 16.7628 63.9394 16.3764C64.2207 15.9901 64.6028 15.6903 65.0857 15.4773C65.5687 15.2614 66.1156 15.1534 66.7264 15.1534C67.3457 15.1534 67.8883 15.2614 68.3542 15.4773C68.823 15.6903 69.1909 15.9872 69.4579 16.3679C69.7249 16.7457 69.8627 17.1804 69.8713 17.6719H68.3499ZM82.1432 18.0597C82.0721 17.8295 81.9741 17.6236 81.8491 17.4418C81.727 17.2571 81.5792 17.0994 81.406 16.9688C81.2355 16.8381 81.0395 16.7401 80.8179 16.6747C80.5963 16.6065 80.3548 16.5724 80.0935 16.5724C79.6247 16.5724 79.2071 16.6903 78.8406 16.9261C78.4741 17.1619 78.1858 17.5085 77.9756 17.9659C77.7682 18.4205 77.6645 18.9744 77.6645 19.6278C77.6645 20.2869 77.7682 20.8452 77.9756 21.3026C78.1829 21.7599 78.4713 22.108 78.8406 22.3466C79.2099 22.5824 79.6389 22.7003 80.1275 22.7003C80.5707 22.7003 80.9542 22.6151 81.2781 22.4446C81.6048 22.2741 81.8562 22.0327 82.0324 21.7202C82.2085 21.4048 82.2966 21.0355 82.2966 20.6122L82.6545 20.6676H80.2852V19.4318H83.8264V20.4801C83.8264 21.2273 83.6673 21.8736 83.3491 22.419C83.031 22.9645 82.5935 23.3849 82.0366 23.6804C81.4798 23.973 80.8406 24.1193 80.119 24.1193C79.315 24.1193 78.6091 23.9389 78.0011 23.5781C77.396 23.2145 76.923 22.6989 76.5821 22.0312C76.244 21.3608 76.075 20.5653 76.075 19.6449C76.075 18.9403 76.1744 18.3111 76.3733 17.7571C76.575 17.2031 76.8562 16.733 77.217 16.3466C77.5778 15.9574 78.0011 15.6619 78.4869 15.4602C78.9727 15.2557 79.5011 15.1534 80.0721 15.1534C80.5551 15.1534 81.0054 15.2244 81.423 15.3665C81.8406 15.5057 82.2113 15.7045 82.5352 15.9631C82.8619 16.2216 83.1304 16.5284 83.3406 16.8835C83.5508 17.2386 83.6886 17.6307 83.754 18.0597H82.1432ZM86.3152 24V15.2727H89.5879C90.2584 15.2727 90.8209 15.3892 91.2754 15.6222C91.7328 15.8551 92.078 16.1818 92.3109 16.6023C92.5467 17.0199 92.6646 17.5071 92.6646 18.0639C92.6646 18.6236 92.5453 19.1094 92.3066 19.5213C92.0709 19.9304 91.7228 20.2472 91.2626 20.4716C90.8024 20.6932 90.237 20.804 89.5666 20.804H87.2356V19.4915H89.3535C89.7456 19.4915 90.0666 19.4375 90.3166 19.3295C90.5666 19.2187 90.7513 19.0582 90.8706 18.848C90.9927 18.6349 91.0538 18.3736 91.0538 18.0639C91.0538 17.7543 90.9927 17.4901 90.8706 17.2713C90.7484 17.0497 90.5623 16.8821 90.3123 16.7685C90.0623 16.652 89.7399 16.5938 89.345 16.5938H87.8961V24H86.3152ZM90.8237 20.0455L92.9842 24H91.22L89.0978 20.0455H90.8237ZM96.2006 24H94.5131L97.5855 15.2727H99.5372L102.614 24H100.926L98.5955 17.0625H98.5273L96.2006 24ZM96.256 20.5781H100.858V21.848H96.256V20.5781ZM97.9691 14.4119L98.9236 12.4645H100.432L99.1239 14.4119H97.9691ZM103.285 16.598V15.2727H110.248V16.598H107.551V24H105.983V16.598H103.285ZM114.132 15.2727V24H112.551V15.2727H114.132ZM121.547 17.6719C121.507 17.2997 121.339 17.0099 121.044 16.8026C120.751 16.5952 120.37 16.4915 119.902 16.4915C119.572 16.4915 119.289 16.5412 119.054 16.6406C118.818 16.7401 118.637 16.875 118.512 17.0455C118.387 17.2159 118.323 17.4105 118.321 17.6293C118.321 17.8111 118.362 17.9687 118.444 18.1023C118.529 18.2358 118.645 18.3494 118.789 18.4432C118.934 18.5341 119.095 18.6108 119.271 18.6733C119.447 18.7358 119.625 18.7884 119.804 18.831L120.622 19.0355C120.951 19.1122 121.268 19.2159 121.572 19.3466C121.879 19.4773 122.153 19.642 122.395 19.8409C122.639 20.0398 122.832 20.2798 122.974 20.5611C123.116 20.8423 123.187 21.1719 123.187 21.5497C123.187 22.0611 123.056 22.5114 122.795 22.9006C122.534 23.2869 122.156 23.5895 121.662 23.8082C121.17 24.0241 120.575 24.1321 119.876 24.1321C119.197 24.1321 118.608 24.027 118.108 23.8168C117.61 23.6065 117.221 23.2997 116.94 22.8963C116.662 22.4929 116.511 22.0014 116.488 21.4219H118.044C118.066 21.7259 118.16 21.9787 118.325 22.1804C118.49 22.3821 118.704 22.5327 118.968 22.6321C119.235 22.7315 119.534 22.7812 119.863 22.7812C120.207 22.7812 120.508 22.7301 120.767 22.6278C121.028 22.5227 121.233 22.3778 121.38 22.1932C121.528 22.0057 121.603 21.7869 121.606 21.5369C121.603 21.3097 121.537 21.1222 121.406 20.9744C121.275 20.8239 121.092 20.6989 120.856 20.5994C120.623 20.4972 120.35 20.4062 120.038 20.3267L119.045 20.071C118.326 19.8864 117.758 19.6065 117.341 19.2315C116.926 18.8537 116.718 18.3523 116.718 17.7273C116.718 17.2131 116.858 16.7628 117.136 16.3764C117.417 15.9901 117.799 15.6903 118.282 15.4773C118.765 15.2614 119.312 15.1534 119.923 15.1534C120.542 15.1534 121.085 15.2614 121.551 15.4773C122.02 15.6903 122.387 15.9872 122.654 16.3679C122.922 16.7457 123.059 17.1804 123.068 17.6719H121.547Z" fill="#09090B"/>
<defs>
<linearGradient id="paint0_linear_2160_945" x1="0" y1="20" x2="156" y2="20" gradientUnits="userSpaceOnUse">
<stop stop-color="#FC4A1A"/>
<stop offset="1" stop-color="#F7B733"/>
</linearGradient>
</defs>
</svg>
