<svg width="26" height="28" viewBox="0 0 26 28" fill="none" xmlns="http://www.w3.org/2000/svg">
<path d="M25.115 0.711543C24.9958 0.617067 24.8564 0.551433 24.7076 0.519774C24.5589 0.488115 24.4048 0.491287 24.2575 0.529043L8.2575 4.52904C8.04137 4.58307 7.84947 4.70772 7.71224 4.88322C7.57501 5.05871 7.50032 5.27501 7.5 5.49779V19.2603C6.66571 18.7029 5.66904 18.4402 4.66838 18.5142C3.66772 18.5881 2.72047 18.9944 1.97718 19.6684C1.23388 20.3424 0.737169 21.2455 0.565982 22.2342C0.394795 23.2229 0.558949 24.2404 1.03236 25.1251C1.50577 26.0098 2.26128 26.7109 3.17882 27.117C4.09637 27.523 5.12331 27.6108 6.09646 27.3663C7.06961 27.1218 7.93313 26.5591 8.54981 25.7676C9.16648 24.9761 9.50093 24.0012 9.5 22.9978V11.279L23.5 7.77904V15.2603C22.6657 14.7029 21.669 14.4402 20.6684 14.5142C19.6677 14.5881 18.7205 14.9944 17.9772 15.6684C17.2339 16.3424 16.7372 17.2455 16.566 18.2342C16.3948 19.2229 16.5589 20.2404 17.0324 21.1251C17.5058 22.0098 18.2613 22.7109 19.1788 23.117C20.0964 23.523 21.1233 23.6108 22.0965 23.3663C23.0696 23.1218 23.9331 22.5591 24.5498 21.7676C25.1665 20.9761 25.5009 20.0012 25.5 18.9978V1.49779C25.4997 1.34612 25.4648 1.19652 25.3981 1.0603C25.3314 0.924082 25.2346 0.804821 25.115 0.711543Z" fill="url(#paint0_linear_2213_675)"/>
<defs>
<linearGradient id="paint0_linear_2213_675" x1="0.5" y1="14.0001" x2="25.5" y2="14.0001" gradientUnits="userSpaceOnUse">
<stop stop-color="#FC4A1A"/>
<stop offset="1" stop-color="#F7B733"/>
</linearGradient>
</defs>
</svg>
