<svg width="30" height="22" viewBox="0 0 30 22" fill="none" xmlns="http://www.w3.org/2000/svg">
<path d="M7.01501 12.478C7.0184 12.5457 7.00798 12.6134 6.98438 12.677C6.96077 12.7406 6.92448 12.7987 6.87771 12.8478C6.83094 12.8969 6.77466 12.936 6.71231 12.9627C6.64996 12.9894 6.58283 13.0031 6.51501 13.003H1.00001C0.774308 13.0033 0.555124 12.9273 0.378105 12.7873C0.201086 12.6473 0.0766438 12.4515 0.0250138 12.2317C-0.00713503 12.0814 -0.00565299 11.9257 0.0293538 11.776C0.0643607 11.6262 0.132027 11.4861 0.227514 11.3655C1.10977 10.1955 2.28038 9.27424 3.62501 8.69175C3.03467 8.1535 2.5819 7.48164 2.30461 6.73242C2.02732 5.9832 1.9336 5.17845 2.03128 4.38556C2.12897 3.59267 2.41522 2.83474 2.86606 2.17523C3.31691 1.51572 3.91922 0.973839 4.62255 0.594975C5.32588 0.216112 6.10976 0.0112937 6.90852 -0.00232506C7.70729 -0.0159438 8.49769 0.162033 9.21353 0.5167C9.92937 0.871367 10.5498 1.3924 11.0229 2.03615C11.4959 2.67991 11.8079 3.42765 11.9325 4.21675C11.9486 4.32286 11.9296 4.43133 11.8784 4.52565C11.8272 4.61997 11.7465 4.69497 11.6488 4.73925C10.2618 5.38047 9.0871 6.40505 8.2634 7.69209C7.4397 8.97914 7.00133 10.4749 7.00001 12.003C7.00001 12.163 7.00001 12.3205 7.01501 12.478ZM29.765 11.3642C28.8848 10.1956 27.7169 9.27484 26.375 8.69175C26.9654 8.1535 27.4181 7.48164 27.6954 6.73242C27.9727 5.9832 28.0664 5.17845 27.9687 4.38556C27.8711 3.59267 27.5848 2.83474 27.134 2.17523C26.6831 1.51572 26.0808 0.973839 25.3775 0.594975C24.6741 0.216112 23.8903 0.0112937 23.0915 -0.00232506C22.2927 -0.0159438 21.5023 0.162033 20.7865 0.5167C20.0707 0.871367 19.4502 1.3924 18.9772 2.03615C18.5041 2.67991 18.1922 3.42765 18.0675 4.21675C18.0514 4.32286 18.0704 4.43133 18.1216 4.52565C18.1729 4.61997 18.2535 4.69497 18.3513 4.73925C19.7383 5.38047 20.9129 6.40505 21.7366 7.69209C22.5603 8.97914 22.9987 10.4749 23 12.003C23 12.163 23 12.3205 22.985 12.478C22.9816 12.5457 22.992 12.6134 23.0157 12.677C23.0393 12.7406 23.0755 12.7987 23.1223 12.8478C23.1691 12.8969 23.2254 12.936 23.2877 12.9627C23.3501 12.9894 23.4172 13.0031 23.485 13.003H29C29.2257 13.0033 29.4449 12.9273 29.6219 12.7873C29.7989 12.6473 29.9234 12.4515 29.975 12.2317C30.0074 12.0811 30.0059 11.9251 29.9706 11.7751C29.9354 11.6251 29.8673 11.4848 29.7713 11.3642H29.765ZM18.64 16.7617C19.6357 15.9992 20.3674 14.9438 20.7323 13.7439C21.0972 12.5441 21.0769 11.26 20.6744 10.0722C20.2718 8.88447 19.5071 7.8527 18.4879 7.12196C17.4686 6.39121 16.246 5.99822 14.9919 5.99822C13.7377 5.99822 12.5151 6.39121 11.4959 7.12196C10.4766 7.8527 9.71198 8.88447 9.30941 10.0722C8.90683 11.26 8.88657 12.5441 9.25147 13.7439C9.61636 14.9438 10.3481 15.9992 11.3438 16.7617C9.57693 17.5273 8.1016 18.8384 7.13376 20.503C7.04599 20.655 6.99978 20.8275 6.99979 21.0031C6.9998 21.1786 7.04603 21.3511 7.13382 21.5031C7.22161 21.6551 7.34788 21.7814 7.49993 21.8691C7.65199 21.9569 7.82446 22.003 8.00001 22.003H22C22.1756 22.003 22.348 21.9569 22.5001 21.8691C22.6521 21.7814 22.7784 21.6551 22.8662 21.5031C22.954 21.3511 23.0002 21.1786 23.0002 21.0031C23.0002 20.8275 22.954 20.655 22.8663 20.503C21.8964 18.8373 20.4183 17.5261 18.6488 16.7617H18.64Z" fill="url(#paint0_linear_2213_673)"/>
<defs>
<linearGradient id="paint0_linear_2213_673" x1="0.00195312" y1="11" x2="29.9982" y2="11" gradientUnits="userSpaceOnUse">
<stop stop-color="#FC4A1A"/>
<stop offset="1" stop-color="#F7B733"/>
</linearGradient>
</defs>
</svg>
